<?xml version="1.0" encoding="UTF-8"?>
<svg width="16" height="16" viewBox="0 0 192 192" xmlns="http://www.w3.org/2000/svg" role="img" aria-label="Food icon">
  <title>Food App Icon (192x192)</title>
  <rect width="192" height="192" rx="24" fill="#FFFAF0"/>
  <!-- plate -->
  <circle cx="96" cy="96" r="56" fill="#FFF8E1" stroke="#F0C987" stroke-width="4"/>
  <circle cx="96" cy="96" r="40" fill="#FFFFFF" />
  <!-- fork (left) -->
  <g transform="translate(60,58)">
    <rect x="0" y="0" width="8" height="46" rx="3" fill="#3A3A3A"/>
    <rect x="-4" y="-14" width="4" height="14" rx="1" fill="#3A3A3A"/>
    <rect x="4" y="-14" width="4" height="14" rx="1" fill="#3A3A3A"/>
    <rect x="12" y="-14" width="4" height="14" rx="1" fill="#3A3A3A"/>
  </g>
  <!-- spoon (right) -->
  <g transform="translate(116,64)">
    <rect x="10" y="18" width="6" height="40" rx="3" fill="#3A3A3A" transform="rotate(20 13 38)"/>
    <ellipse cx="20" cy="12" rx="16" ry="10" fill="#3A3A3A" transform="rotate(20 20 12)"/>
    <ellipse cx="20" cy="12" rx="10" ry="6" fill="#FFFFFF" opacity="0.12" transform="rotate(20 20 12)"/>
  </g>
  <!-- leaf accent -->
  <path d="M124 78c8-6 18-4 22 2-7 4-14 10-20 14-4-6-5-10-2-16z" fill="#66BB6A" opacity="0.95"/>
</svg>
