<?xml version="1.0" encoding="UTF-8"?>
<svg id="Layer_2" data-name="Layer 2" xmlns="http://www.w3.org/2000/svg" viewBox="0 0 379.4471 265.7182">
  <defs>
    <style>
      .cls-1 {
        fill: #ffde4f;
      }

      .cls-2 {
        fill: #ef67a5;
      }

      .cls-3 {
        fill: #fff;
      }

      .cls-4 {
        fill: #231f20;
      }
    </style>
  </defs>
  <g id="katman_1" data-name="katman 1">
    <g>
      <path class="cls-4" d="M286.0225,7.3509s-2.2171,.5285-2.258,.5421c-.0396,0-.7447,.2244-.7447,.2244-8.6548,2.732-17.5991,5.5696-25.8578,9.5036-12.1785,5.6773-22.2586,9.9824-25.0962,10.6955-1.8685,.4617-5.1624,.0514-10.159-.5691l-8.7067-1.0023c-9.6437-.912-24.2587-1.5845-31.09-1.7433-7.1489-.3028-14.1406,.0262-22.4447,.6069-9.0686,.5691-18.3446,1.9813-27.5716,4.1982-1.248,.4233-3.572,.092-4.9116-.6995-8.9171-4.5673-18.9325-8.5013-31.4996-12.3697-.0062,0-4.4895-1.0964-4.4895-1.0964-11.0633-2.7722-23.5982-5.9145-32.6078,1.7689-5.3534,6.4572-9.2295,13.7837-11.7626,22.3257-1.7109,5.5968-2.753,12.1461-3.1899,20.0269-.0062,.3969-.0062,.7917-.0062,1.2012,0,10.2184,2.8112,19.9749,5.5457,29.4273l.8045,2.772-.1192,.2129c-10.8389,18.9171-16.2653,37.0971-16.6139,55.5659v.0534l-.021,.0522c-.0978,.4501-.1304,.9388-.1304,1.4405,0,.527,.0326,1.0807,.071,1.6094,.0347,.5291,.0804,1.0692,.0804,1.61,0,1.5323-.3049,3.0235-1.7893,4.0138l-.1056,.0802-8.3639,.9105c-2.1841,.4097-4.5349,.6591-6.8114,.8984-4.6467,.4887-9.4593,1.0025-13.5251,3.0235-2.192,.9105-2.6482,3.0216-2.6482,4.6465,.0994,.6591,.6205,1.3472,1.3012,1.65,3.2415,.448,6.2037,.0398,9.3326-.4218,1.7711-.2642,3.5988-.5151,5.4727-.6089-.0252,0,2.661-.2894,2.661-.2894l7.722-.7529c.0479,0,1.6441-.0792,1.6441-.0792,2.1189-.1588,4.5159-.329,5.8035,1.7555l.0326,.067,.0194,.0654c.9712,3.1555,1.6952,6.4432,2.397,9.6243,.7781,3.5392,1.5842,7.1947,2.7246,10.6421,.3771,.8827,.4043,1.7953,.0594,2.5996-.3812,.9105-1.2072,1.6251-2.4411,2.1117-.0326,.0134-4.2061,1.2816-4.2061,1.2816-4.1846,1.2152-8.5281,2.4814-12.2379,4.8977l-.0586,.04-.0656,.0134c-1.7435,.6077-2.3376,2.8112-2.1924,3.6291,.0334,.2244,.3301,.6341,.9048,1.0444,.4559,.3164,2.1061,1.3202,4.4165,.9233,3.1747-.5671,5.0683-1.1092,6.9228-1.7433l.0483-.0113,.0573-.0136c1.3598-.1725,2.753-.5421,4.0943-.8856,3.7688-1.0038,7.6625-2.0325,10.9907,1.2938l.0594,.067,.038,.0784c1.4795,2.7862,3.1161,5.3472,4.8406,8.0666l2.3297,3.6962c.3697,.8313,.9423,1.5059,1.5438,2.2184l.4295,.5157c.5021,.54,.8049,1.385,.8049,2.2435,0,.2108-.019,.4218-.054,.6211-.1968,1.1607-.9097,2.1245-2.0055,2.6936-2.8917,1.9143-5.9611,3.7096-8.9312,5.465l-5.3204,3.1689c-1.7418,1.0558-7.0305,4.7923-8.7257,8.1587-.0083,.1974-.0136,.6591-.0136,.6591-.0136,.2913-.0272,.6077-.0272,.899,0,1.0687,.1514,2.0461,.958,2.5862,2.0121,.8185,4.0658,.1595,5.2812-.7511,2.7394-1.6249,5.4244-3.3797,8.0186-5.0696,5.0696-3.3147,10.3178-6.7464,15.9093-9.0974,1.5248-.9233,4.0332-1.1092,5.7367,.4501,9.6833,7.3921,20.3579,14.7593,32.55,18.3904,8.8982,3.6555,19.3076,6.798,31.0169,9.3328,.0074,0,2.1726,.3298,2.1726,.3298,47.831,7.1563,84.9349,8.7393,110.2964,4.7133,10.9441-1.7297,21.6843-4.6213,30.8928-7.2083,1.2876-.3041,2.489-.8043,3.763-1.3336,1.3334-.5671,2.7246-1.149,4.2172-1.4904,12.5155-5.2156,23.0961-11.368,32.2534-18.7601,3.9198-3.5792,7.5916-7.3158,10.8636-11.0383,1.0504-1.228,3.3211-2.1655,5.1372-1.5308,1.623,.356,3.1998,1.0685,4.7193,1.7567,1.1878,.5537,2.416,1.0943,3.6578,1.4776,2.3351,.8064,4.5931,1.8487,6.7714,2.8512,3.7362,1.7297,7.5908,3.4985,11.7432,4.0543,.6935,.0398,1.3128-.1725,1.7955-.6347,.5751-.54,.7913-1.2796,.7987-1.7819v-.0668l.0272-.0784c.5-1.7691-.6151-3.2615-1.6441-4.1982-4.3707-3.0101-9.3136-5.2806-14.0874-7.4862-2.8124-1.2932-5.7148-2.6268-8.5013-4.1192-1.479-.7247-2.0211-1.65-2.2109-2.2955-.1918-.6611-.1188-1.3606,.2162-1.9143,1.4464-3.0775,2.7865-6.3518,4.0877-9.5057l1.6168-3.9218c.0268-.0386,.7855-2.0333,.7855-2.0333,.6209-1.8873,1.3008-4.0522,3.815-4.5681,5.6773-.1318,10.2316,.4753,15.4988,1.1614l1.7823,.2378c.0347,0,2.562,.0534,2.562,.0534,2.4618,.119,5.0098,.2244,6.8246-.991,.3177-.2506,.5421-.9767,.4963-1.7161-.0458-.6327-.2777-1.1478-.5941-1.3452-3.8496-2.1536-8.1127-3.6042-13.037-4.4241-1.5917-.3298-3.0311-.4887-4.4301-.6461-1.3276-.1454-2.588-.2779-3.7766-.5537,.0792,0-.6725-.0534-.6725-.0534l-1.6762-.2108c-1.0174-.1861-2.0335-.8315-2.5868-1.6385-.3503-.5017-.4827-1.0153-.4043-1.504,.0594-2.6808,.4237-5.386,.7591-8.0147,.356-2.6538,.7146-5.386,.7793-8.1972,.0062-.1054,.1378-1.6385,.1378-1.6385,.0594-1.6358,.1386-3.6689,2.3248-4.9371l.0916-.052,.0994-.0136c4.8522-.6725,9.4601-.5805,14.3172-.4887,3.3933,.0656,6.9055,.1326,10.4886-.0784,.8713-.2508,1.9023-.3049,2.9119-.3447,2.6808-.092,4.3439-.2758,4.5221-2.5212-.5095-2.376-2.8124-3.1677-5.0452-3.8936l-1.1341-.4103c-5.4718-1.0558-11.9268-1.0828-17.6375-1.0958l-2.7184-.0134-2.232,.0668c-1.4068,.065-2.7134,.119-3.8224-.0784-1.6366,.1054-2.4952-1.3606-2.6194-2.878-2.284-14.2058-5.3023-29.1913-11.7651-42.2744-.0111-.0398-3.7019-9.082-3.7019-9.082-1.366-3.2613-2.4564-5.8495-2.7473-7.0243-.0656-.2508-.0924-.5943-.0924-1.0289,0-2.192,.734-6.6276,1.7439-12.3718l.918-5.4244c.5149-3.2749,.7051-8.8584,.7051-14.7215,0-6.1117-.2108-12.5157-.5004-16.9512-.6935-3.7745-1.5327-7.578-2.3318-11.1017l-1.0364-2.9451c-2.376-6.9705-5.0679-14.8649-12.8914-16.1599-8.9629-1.2668-17.8883,.8585-26.5159,2.9317"/>
      <path class="cls-3" d="M305.7591,15.2852c-9.2084,.7265-16.9646,2.284-23.7377,4.7789,.0342,0-1.2534,.3833-1.2534,.3833-7.4402,2.5618-13.32,5.0966-18.5418,7.9612-4.1326,1.9927-8.1584,3.6555-11.7032,5.148-4.1599,1.7169-7.7368,3.2209-10.5233,4.7923-5.1154,2.8776-12.3905,1.9143-18.7997,1.056-14.5359-1.9393-21.6633-2.1901-34.6157-2.6788l-6.8712-.2508c-8.8907-.4637-24.9448,.54-35.0502,2.1785-2.3186,.1704-4.7082,.7909-7.0321,1.3986-4.8381,1.2416-9.4064,2.4294-13.7957-.052-12.4755-7.0509-24.7406-11.9887-37.4859-15.0641-.0264-.0136-.8585-.1859-.8585-.1859-6.5358-1.3202-15.4662-3.1291-20.582,2.2575-7.2351,8.911-10.6606,20.609-10.8121,36.8343,.6263,5.3724,1.6094,10.9577,4.5733,15.8035l.2851,.4483,.3948-.2238,1.9205-1.0964c1.2624-.8313,2.4638-1.6113,3.9887-1.32,1.01,.5157,2.1177,1.2012,2.8574,2.3894,.0804,.3428,.1262,.7125,.1262,1.0694,0,1.1742-.3697,2.2842-.7476,3.1019-.0116,0-2.5402,3.763-2.5402,3.763-4.2308,6.2986-8.6337,12.7936-11.2094,19.8965-6.5742,14.7194-9.9077,30.6419-9.9077,47.2885v.1324l.0458,.119c.5611,1.1092,1.7035,2.3104,2.9911,2.4677,2.0979,.067,4.117,.3961,6.0795,.7146,1.8953,.3028,3.8608,.6205,5.8287,.6995,.2182,.0784,2.1973,.7125,2.1973,.7125,2.6598,.7131,4.4165,1.3472,4.4165,3.5905v.146c-.6131,2.6402-2.9234,2.7586-6.3762,2.6538-1.0042-.0406-1.9411-.0677-2.7724,.0264,.0648,0-3.0047-.1725-3.0047-.1725-1.5768-.1452-3.2019-.2779-4.7977-.1318-.8722,.0534-1.6172,.3699-2.1268,.9369-.5075,.5807-.7509,1.387-.6923,2.3238v1.8225c.5945,5.8475,2.3363,11.8276,5.1814,17.8232l.054,.092,.0784,.0784c1.109,.964,2.805,.9503,4.0794,.5287,1.7814,.2242,3.4338-.092,5.0234-.3833,1.8953-.3562,3.6962-.6855,5.3996-.0264,.6939,.1722,1.1692,.5151,1.4848,1.0423,.2838,.4751,.3895,1.0442,.3895,1.5842,0,.3449-.0384,.6747-.1056,.9505-.0842,.3697-.4885,.6609-.8779,.9503,0,0-.0722,.0668-.1378,.1075-2.732,1.0287-5.6773,2.0981-8.727,2.943-1.0236,.4617-1.7286,1.1876-2.0063,2.0063-.092,.2777-.1324,.5421-.1324,.8064,0,.4216,.1114,.8449,.3234,1.2532,2.2113,4.6999,5.5185,8.9386,8.7072,13.0308l.1188,.1576c1.4716,1.8351,4.0274,2.5232,6.8461,1.8621,.092-.027,1.9601-.8583,1.9601-.8583,3.0352-1.3716,5.6426-2.56,9.168-2.4543,.7987,.025,1.4716,.356,1.9947,.9753,.5458,.6611,.8697,1.6115,.8697,2.5348,0,.119-.0054,.2378-.019,.3697-1.09,1.8359-2.8582,2.7479-4.7329,3.6982-1.479,.7395-3.0097,1.504-4.2379,2.7842l-.092,.0939-.0347,.1184c-.1052,.3298-.1514,.6211-.1514,.8583,0,.6077,.2834,.9105,.5021,1.056,11.69,8.6337,24.9263,15.0107,40.444,19.4462,20.8068,5.9281,44.8205,9.4003,75.5948,10.9179,18.8459,.5941,40.8005,.5285,60.8696-4.5011,14.2169-2.5618,27.2478-7.3671,39.8021-14.6809,6.733-4.1463,14.3704-9.1624,19.9099-16.4114,.6395-.7907,.6989-1.5038,.6341-1.952-.0866-.6098-.4427-1.1632-1.0174-1.5595-.052-.025-1.7365-.8833-1.7365-.8833-1.8813-.899-3.6499-1.7439-4.3241-3.7232-.2892-.7915-.3486-2.5482,.7661-3.1823,2.0789-1.5046,4.3629-.9369,6.7871-.3569l2.9564,.6077c3.0885,.7393,4.5349-.991,5.181-2.5484,3.3145-5.8077,5.4145-10.494,6.8003-15.1425,.2182-.5537,.3239-1.0828,.3239-1.558,0-.421-.0804-.8043-.238-1.1612-.3041-.6341-.8775-1.1343-1.6168-1.3736-.0272-.0134-1.7117-.4353-1.7117-.4353-3.0559-.7395-6.5065-1.5708-6.514-4.1056,.7397-2.9703,3.2073-3.3933,7.5049-3.1291,.0326,0,1.196,.067,1.196,.067,1.5958,.1568,3.5905,.3298,4.5679-1.3736l.0512-.079,.0136-.0941c.6267-3.6555,1.1552-7.4569,1.5446-11.3389,.3697-1.9947,.2851-4.1712,.1993-6.285l-.0194-.6989c.1704-2.9837-1.4464-3.1155-2.6289-3.2209l-.1378-.0134h-.5157c-.0974,0-6.825,1.0151-6.825,1.0151,0,0-6.6216,1.0046-6.7867,1.031-2.0785-.1318-3.4317-1.031-4.1042-2.7322-.0804-.3313-.1205-.6341-.1205-.9254,0-.9889,.4637-1.7819,1.479-2.5618,2.0542-1.0809,3.9684-1.477,5.8233-1.8739l2.9828-.7265c1.1614-.3022,2.449-.4617,3.6825-.6205,1.8169-.238,3.7044-.4753,5.3617-1.1878,1.0747-.5407,1.6094-1.5715,1.6094-3.0755-.7855-7.4076-2.2171-14.2056-4.3897-20.8198,0-.027-.165-.4751-.165-.4751-1.274-3.6582-2.5942-7.4191-4.4029-10.8261-1.9873-5.6501-4.4953-11.1287-6.5222-15.5392-1.8202-3.9604-3.3995-7.3806-3.3995-8.5553,0-2.6802,.5289-11.4059,1.5446-18.5359,.6935-4.8187,1.1952-13.5581,1.1952-21.4389,0-3.4338-.092-6.706-.3102-9.4267-.7645-9.6113-3.742-19.4464-5.8881-21.8087-2.0711-2.0467-4.2247-2.1002-6.2446-1.8493"/>
      <path class="cls-4" d="M107.5178,160.9956c3.7292-1.5438,7.703,0,10.529,2.1785,3.9874,4.2389,4.1058,10.5346,3.4717,16.1721-.6539,3.855-2.5674,8.0931-6.5474,9.7565-4.1062,1.4141-9.2427,.8984-12.1995-2.3089-4.1062-4.8858-3.9812-12.4503-2.1783-18.4845,1.0306-2.9451,3.723-6.2842,6.9245-7.3137"/>
      <path class="cls-4" d="M179.1462,189.7503c6.6732-3.9872,16.687-3.0903,23.0961,1.1478,3.0831,1.6649,5.2668,5.1372,5.5259,8.7278,.3812,4.7519-1.7955,8.8577-5.6509,11.2877-7.3214,4.5004-17.3347,2.8376-24.3916-1.018-4.1054-2.3104-5.6439-6.798-4.8699-11.5499,.6399-3.4736,2.6916-7.0643,6.2904-8.5953"/>
      <path class="cls-1" d="M184.1486,195.2553c4.6215-1.531,11.0307-1.531,14.2384,2.5752,1.2938,1.0153,1.163,2.5734,1.4126,3.974-.1188,1.7953-1.656,3.2209-3.1998,3.8548-4.3653,1.9258-10.7803,1.5446-14.6349-1.5459-1.2802-1.2802-2.1849-2.943-1.4068-4.7519,.5079-1.6635,2.0463-3.3263,3.5905-4.1062"/>
      <path class="cls-4" d="M260.8986,161.7609c2.9507-1.1478,7.0569-.7653,9.7641,.6339,4.6195,3.736,5.7693,9.3734,5.1278,15.1561-.7781,5.0046-2.8186,10.6549-8.2183,12.3183-4.2379,1.2796-8.7257-.6339-11.2935-4.2381-2.8178-3.9746-2.6862-9.2416-2.1862-14.1138,.774-3.8536,3.0831-8.0918,6.8061-9.7565"/>
      <path class="cls-4" d="M294.3204,93.2958c.297,.1859,.5999,.3699,.8969,.5557-.297-.1859-.5999-.3699-.8969-.5557"/>
      <path class="cls-4" d="M291.1453,91.2092c-.2719-.1974-.5475-.3812-.8255-.5807,.2781,.1995,.5537,.3833,.8255,.5807"/>
      <path class="cls-4" d="M288.5437,89.3354c-.4159-.3298-.8313-.6475-1.2344-.9774,.4031,.3298,.8185,.6475,1.2344,.9774"/>
      <path class="cls-4" d="M292.5175,92.1346c-.2834-.1974-.5805-.3833-.8639-.5807,.2834,.1974,.5805,.3833,.8639,.5807"/>
      <path class="cls-4" d="M289.8387,90.2859c-.2913-.2244-.5879-.4355-.8796-.6591,.2917,.2236,.5883,.4346,.8796,.6591"/>
      <path class="cls-4" d="M294.0233,93.0984c-.3507-.2108-.6935-.4365-1.0442-.6609,.3507,.2244,.6935,.4501,1.0442,.6609"/>
      <path class="cls-2" d="M254.5167,71.1824c-.0272,.027-.0408,.054-.0677,.0656,.0268-.0116,.0404-.0386,.0677-.0656"/>
      <path class="cls-4" d="M189.0465,70.5889c-.0924-.211-.1708-.4218-.2492-.6463,.0784,.2244,.1568,.4353,.2492,.6463"/>
      <path class="cls-4" d="M188.7375,69.7702c-.0668-.2506-.1337-.5149-.1795-.7663,.0458,.2515,.1126,.5157,.1795,.7663"/>
      <path class="cls-4" d="M189.0465,63.9875c.0726-.2372,.1663-.4887,.2583-.7393-.092,.2506-.1857,.5021-.2583,.7393"/>
      <path class="cls-4" d="M189.5156,62.706c.092-.1974,.184-.4084,.2781-.6193-.0941,.2108-.1861,.4218-.2781,.6193"/>
      <path class="cls-4" d="M190.5528,60.5545c.1316-.238,.2694-.4889,.4155-.7383-.146,.2494-.2838,.5002-.4155,.7383"/>
      <path class="cls-4" d="M189.9971,61.6367c.1126-.2244,.2257-.4483,.3445-.6861-.1188,.2378-.2319,.4617-.3445,.6861"/>
      <path class="cls-4" d="M195.0147,54.323c.2892-.3292,.5805-.6591,.8915-.9904-.3111,.3313-.6023,.6611-.8915,.9904"/>
      <path class="cls-4" d="M191.1386,59.5386c.774-1.2682,1.7035-2.5882,2.7803-3.9218-1.0768,1.3336-2.0063,2.6536-2.7803,3.9218"/>
      <path class="cls-4" d="M194.0703,55.4455c.2566-.3156,.5211-.6339,.7913-.9503-.2702,.3164-.5347,.6347-.7913,.9503"/>
      <path class="cls-4" d="M188.7223,65.1759c.0342-.146,.0677-.2913,.0998-.4218-.0322,.1306-.0656,.2758-.0998,.4218"/>
      <path class="cls-4" d="M197.3506,77.1509c.1452,.052,9.0974,3.4967,20.78,4.0908,.0074,0,.0149-.0116,.0206-.0116-11.6916-.5955-20.6554-4.0272-20.8006-4.0792"/>
      <path class="cls-4" d="M188.4463,67.1685c.0062-.1304,.0062-.2494,.0272-.3812-.021,.1318-.021,.2622-.0272,.3812"/>
      <path class="cls-4" d="M188.4524,68.1075c-.0062-.0941-.0062-.1995-.0136-.3049,.0074,.1054,.0074,.2108,.0136,.3049"/>
      <path class="cls-4" d="M188.5383,66.1932c.0198-.1326,.033-.2645,.0594-.4103-.0264,.1458-.0396,.2777-.0594,.4103"/>
      <path class="cls-4" d="M189.9835,72.1868h.0074c-.0866-.1054-.1588-.2244-.2372-.3298,.0784,.1054,.1452,.2244,.2298,.3298"/>
      <path class="cls-4" d="M189.7537,71.8569c-.0656-.1075-.146-.2129-.2108-.3049,.0648,.092,.1452,.1974,.2108,.3049"/>
      <path class="cls-4" d="M189.5428,71.552c-.1725-.2907-.3301-.5671-.4637-.8713,.1337,.3043,.2913,.5807,.4637,.8713"/>
      <path class="cls-4" d="M218.1512,81.2301c-.0058,0-.0132,.0116-.0206,.0116,6.8325,.3435,14.5961-.2892,22.0804-3.1404-7.479,2.8512-15.2347,3.4723-22.0598,3.1289"/>
      <path class="cls-4" d="M323.1458,104.8341c-.5211,0-1.0809-.0398-1.6688-.1054,.5879,.0656,1.1478,.1054,1.6688,.1054"/>
      <path class="cls-4" d="M321.3767,104.7151c-.5995-.0648-1.2336-.1568-1.8999-.2907,.6663,.1339,1.293,.2259,1.8999,.2907"/>
      <path class="cls-4" d="M317.8402,104.0162c-.0804-.027-.172-.052-.264-.0784,.092,.0264,.1836,.0514,.264,.0784"/>
      <path class="cls-4" d="M329.6952,102.1156c-.1003,.1588-.2059,.3028-.3239,.448,.118-.1452,.2236-.2892,.3239-.448"/>
      <path class="cls-4" d="M318.4669,104.1887c-.073-.027-.1514-.0406-.2244-.067,.073,.0264,.1514,.04,.2244,.067"/>
      <path class="cls-4" d="M319.0069,104.3191c-.0458,0-.1052-.025-.165-.0386,.0598,.0136,.1192,.0386,.165,.0386"/>
      <path class="cls-4" d="M300.2469,96.6891c-.165-.0784-.3301-.1725-.5-.2645,.17,.092,.335,.1861,.5,.2645"/>
      <path class="cls-4" d="M330.9482,90.4311c.1588,1.1748,.2645,2.284,.3177,3.3399-.0532-1.056-.1588-2.1651-.3177-3.3399"/>
      <path class="cls-4" d="M330.7584,89.178c.0594,.3548,.1106,.7247,.165,1.0694-.0545-.3447-.1056-.7146-.165-1.0694"/>
      <path class="cls-4" d="M330.5076,87.7909c.0648,.3833,.1378,.7529,.1972,1.1362-.0594-.3833-.1324-.7529-.1972-1.1362"/>
      <path class="cls-4" d="M330.9956,98.6034c-.04,.2506-.0994,.4751-.1588,.7123,.0594-.2372,.1188-.4617,.1588-.7123"/>
      <path class="cls-4" d="M331.2659,93.771c.0136,.3298,.0272,.6339,.0272,.9367,0-.3028-.0136-.6069-.0272-.9367"/>
      <path class="cls-4" d="M330.8042,99.4888c-.0668,.2238-.1262,.4346-.1918,.632,.0656-.1974,.125-.4082,.1918-.632"/>
      <path class="cls-4" d="M330.5723,100.2532c-.2298,.6875-.5075,1.2932-.8511,1.8083,.3437-.5151,.6213-1.1207,.8511-1.8083"/>
      <path class="cls-4" d="M331.2931,94.9209c0,.3028,0,.5935-.0136,.8699,.0136-.2764,.0136-.5671,.0136-.8699"/>
      <path class="cls-4" d="M317.1137,103.8054c-.0858-.027-.1725-.0534-.2645-.0804,.092,.027,.1786,.0534,.2645,.0804"/>
      <path class="cls-4" d="M331.2721,95.963c-.033,.9369-.125,1.8089-.2628,2.6134,.1378-.8045,.2298-1.6765,.2628-2.6134"/>
      <path class="cls-4" d="M304.6708,98.8947c-.1588-.0668-.3234-.146-.4823-.2244,.1588,.0784,.3234,.1576,.4823,.2244"/>
      <path class="cls-4" d="M303.1513,98.1816c-.092-.0534-.1778-.0941-.2562-.1454,.0784,.0514,.1642,.092,.2562,.1454"/>
      <path class="cls-4" d="M296.0486,94.3381c-.132-.0784-.2624-.1568-.3886-.2244,.1262,.0677,.2566,.146,.3886,.2244"/>
      <path class="cls-4" d="M311.1262,101.6916c-.1242-.0514-.2508-.0918-.3771-.1452,.1262,.0534,.2529,.0939,.3771,.1452"/>
      <path class="cls-4" d="M312.2685,102.129c-.1386-.054-.2838-.1054-.4216-.1595,.1378,.054,.283,.1054,.4216,.1595"/>
      <path class="cls-4" d="M308.4453,100.5961c-.1378-.065-.283-.1306-.4287-.184,.1456,.0534,.2909,.119,.4287,.184"/>
      <path class="cls-4" d="M309.6277,101.0848c-.0784-.025-.151-.0522-.2298-.092,.0788,.0398,.1514,.067,.2298,.092"/>
      <path class="cls-4" d="M305.9774,99.5152c-.1642-.0939-.3292-.1588-.4938-.2393,.1646,.0804,.3296,.1454,.4938,.2393"/>
      <path class="cls-4" d="M316.275,103.5412c-.0784-.027-.1514-.0406-.2182-.067,.0668,.0264,.1399,.04,.2182,.067"/>
      <path class="cls-4" d="M298.8945,95.963c-.1712-.0918-.349-.1859-.5215-.2913,.1725,.1054,.3503,.1995,.5215,.2913"/>
      <path class="cls-4" d="M315.2056,103.1977c-.0858-.0398-.184-.0668-.2781-.1048,.0941,.038,.1923,.065,.2781,.1048"/>
      <path class="cls-4" d="M307.239,100.0688c-.1597-.0784-.3239-.1454-.4889-.2123,.165,.0668,.3292,.1339,.4889,.2123"/>
      <path class="cls-4" d="M314.2876,102.88c-.1184-.052-.2434-.092-.3697-.1304,.1262,.0384,.2513,.0784,.3697,.1304"/>
      <path class="cls-4" d="M301.5939,97.3886c-.144-.0784-.2838-.146-.4353-.2108,.1514,.0648,.2913,.1324,.4353,.2108"/>
      <path class="cls-4" d="M297.5223,95.183c-.1778-.092-.3449-.1838-.5099-.2758,.165,.092,.3321,.1838,.5099,.2758"/>
      <path class="cls-4" d="M313.3107,102.5238c-.1378-.052-.2777-.1054-.408-.1574,.1304,.052,.2702,.1054,.408,.1574"/>
      <path class="cls-4" d="M292.9791,92.4374c-.1432-.1056-.3028-.1974-.4617-.3028,.1588,.1054,.3185,.1972,.4617,.3028"/>
      <path class="cls-4" d="M294.3204,93.2958c-.0937-.0648-.1914-.1324-.297-.1974,.1056,.065,.2034,.1326,.297,.1974"/>
      <path class="cls-4" d="M288.9591,89.6268c-.1316-.0941-.2702-.1995-.4155-.2915,.1452,.092,.2838,.1974,.4155,.2915"/>
      <path class="cls-4" d="M287.3093,88.358c-.0054,0-.019,0-.019-.0134,0,.0134,.0136,.0134,.019,.0134"/>
      <path class="cls-4" d="M290.3198,90.6286c-.1572-.119-.3234-.2244-.481-.3426,.1576,.1182,.3239,.2236,.481,.3426"/>
      <path class="cls-4" d="M291.6536,91.5539c-.165-.1069-.3296-.2259-.5083-.3447,.1786,.1188,.3433,.2378,.5083,.3447"/>
      <path class="cls-4" d="M195.879,76.5168c.0074,.0136,.019,.0136,.0272,.0136-.0083,0-.0198,0-.0272-.0136"/>
      <path class="cls-4" d="M346.355,64.6088c4.2729-9.2814,4.4565-16.9,.5285-22.6293-6.4282-9.3598-21.155-9.5051-27.1966-9.1354-18.4362,1.1343-32.5282,9.1624-39.137,13.7035-3.9664-3.3663-9.1738-5.321-14.7863-5.0696-.1242,0-.2434,.0134-.3622,.0262-4.1714-8.6735-12.3645-21.9938-26.7081-32.423-5.3724-3.909-19.1223-12.4873-30.5363-7.632-6.9434,2.97-11.2415,10.1-12.7606,21.1901-1.1535,8.4745-.4489,13.5447,.0149,16.8974,.4868,3.4338,.4542,3.4587-.826,4.6085-10.0666,9.0434-14.8259,18.3498-13.3931,26.2056,.7591,4.1848,3.7098,9.9675,13.4265,13.7691,2.3887,.9388,5.7169,1.9541,9.6511,2.799-7.2624,2.878-14.8803,5.7177-22.3915,8.2525-1.4716,.5002-2.4816,1.8475-2.5422,3.4049-.0573,1.5715,.8577,2.9971,2.305,3.6039,.1514,.0543,15.0235,6.377,20.0126,18.1532,3.9227,9.2544,14.0812,14.232,20.7548,12.9254,1.9069-.3833,4.2849-.8449,24.522-27.5933,5.1756-6.8514,10.213-13.6899,13.7846-18.5744,.4406,5.5455,1.0747,13.0694,1.8202,20.6482,3.0501,31.2084,4.8398,32.8469,6.2652,34.1669,4.9974,4.6079,16.2579,5.6888,24.4432-.146,10.0401-7.1677,22.88-2.732,23.0116-2.6936,1.5046,.5287,3.1751,.0534,4.1718-1.1748,.9963-1.2416,1.1094-2.9694,.2698-4.3164-5.3262-8.5953-11.3983-18.0876-17.1676-26.9973,6.6196,2.9694,12.1785,4.7385,14.5024,5.1886,7.3325,1.439,12.8972,.1704,16.5554-3.7764,6.0387-6.5222,4.4293-18.2464,2.0001-26.9189q-.3643-1.3336,1.5248-3.5656c1.9927-2.3359,5.0085-5.8617,8.243-12.8969"/>
      <path class="cls-2" d="M248.5019,82.9052l-4.8381,1.9021c-7.875,3.1425-16.2979,4.1199-24.0677,3.934-8.4155,3.5373-17.8289,7.3003-27.3348,10.7205,5.5857,3.6042,12.7268,9.5572,16.2851,17.9531,2.64,6.2336,9.0034,8.7798,11.9883,8.5283,3.7692-2.7435,19.973-23.7492,35.183-44.7015-.4427-.2622-.8771-.54-1.3012-.8313-1.5248,.7936-3.2939,1.4924-5.9145,2.4948"/>
      <path class="cls-2" d="M275.6061,87.6585c-1.4601-1.6115-2.5212-2.9445-3.2931-4.1192-1.4068,.3697-2.8459,.6077-4.3249,.6995,1.8297,23.8299,4.4627,48.2023,6.2045,52.3735,2.3582,1.7955,9.1564,3.0101,14.7017-.9503,7.1407-5.0838,15.0297-5.8231,20.9252-5.3745-6.6006-10.4676-13.8168-21.5977-19.9747-30.998-5.1888-3.2731-10.213-7.1685-14.2388-11.631"/>
      <path class="cls-2" d="M340.7049,46.2184c-3.4779-5.0838-12.9054-6.3768-20.5618-5.9017-16.0467,.9774-28.6814,7.9728-34.7882,12.0541,1.4988,2.6404,2.449,5.6503,2.6883,8.8441,4.7445-.8847,9.5632-.8577,13.8551,.8185,1.9275,.7665,2.8706,2.9451,2.1115,4.8594-.7583,1.9271-2.937,2.864-4.8513,2.1111-3.4127-1.3466-7.6448-1.056-11.9487,.0404-.7645,2.5484-2.0195,4.9514-3.7015,7.0759-.3317,.4103-.6535,.8313-1.0178,1.2146-.8639,.9503-1.8008,1.7825-2.805,2.5484,2.5752,.5543,5.0626,1.1077,7.4385,1.6769,23.9695,5.7423,38.0219,12.5159,41.8121,20.1723,.1514,.3028,.2702,.5941,.3833,.8969,.0186-.025,.0322-.052,.052-.0656,.118-.1452,.2236-.2892,.3239-.448,.0074-.027,.026-.0406,.026-.054,.3437-.5151,.6213-1.1207,.8511-1.8083,.0136-.0384,.0326-.079,.04-.1324,.0656-.1974,.125-.4082,.1918-.632,.0136-.0675,.0272-.1075,.0326-.1731,.0594-.2372,.1188-.4617,.1588-.7123,0-.0136,0-.027,.0136-.027,.1378-.8045,.2298-1.6765,.2628-2.6134,0-.052,.0074-.1054,.0074-.1722,.0136-.2764,.0136-.5671,.0136-.8699v-.2131c0-.3028-.0136-.6069-.0272-.9367-.0532-1.056-.1588-2.1651-.3177-3.3399-.0062-.0534-.0194-.119-.0248-.1838-.0545-.3447-.1056-.7146-.165-1.0694-.021-.0941-.0347-.1725-.0536-.2508-.0594-.3833-.1324-.7529-.1972-1.1362-.0458-.0784-.0866-.1324-.1188-.2108-2.543-6.0335-5.6315-9.5323-5.6583-9.5593-1.2992-1.439-1.1803-3.6689,.2504-4.9776,1.4526-1.2938,3.6718-1.1999,4.971,.2527,.0536,.0386,.4233,.4483,.9902,1.1748,.4617-.6211,.9642-1.2152,1.4716-1.8223,1.8297-2.14,4.3323-5.0702,7.1373-11.1687,3.1021-6.7194,3.4833-11.8567,1.1539-15.2613"/>
      <path class="cls-2" d="M322.7972,104.1617c-1.5521-2.4962-7.5268-8.2771-30.2987-14.4564-1.6498-.4617-3.3805-.912-5.2082-1.3606,0,.0134,.0136,.0134,.019,.0134,.4031,.3298,.8185,.6475,1.2344,.9774,.1452,.092,.2838,.1974,.4155,.2915,.2917,.2236,.5883,.4346,.8796,.6591,.1576,.1182,.3239,.2236,.481,.3426,.2781,.1995,.5537,.3833,.8255,.5807,.1786,.1188,.3433,.2378,.5083,.3447,.2834,.1974,.5805,.3833,.8639,.5807,.1588,.1054,.3185,.1972,.4617,.3028,.3507,.2244,.6935,.4501,1.0442,.6609,.1056,.065,.2034,.1326,.297,.1974,.297,.1859,.5999,.3699,.8969,.5557,.1535,.0784,.2913,.1702,.4427,.2622,.1262,.0677,.2566,.146,.3886,.2244,.3185,.1859,.6345,.3833,.9637,.5691,.165,.092,.3321,.1838,.5099,.2758,.2838,.1725,.5669,.3313,.8507,.4887,.1725,.1054,.3503,.1995,.5215,.2913,.283,.1588,.5669,.3028,.8524,.4617,.17,.092,.335,.1861,.5,.2645,.3102,.1722,.6077,.3162,.9118,.4887,.1514,.0648,.2913,.1324,.4353,.2108,.4295,.2238,.866,.4367,1.3012,.6475,.0784,.0514,.1642,.092,.2562,.1454,.3511,.1574,.6935,.3298,1.0372,.4887,.1588,.0784,.3234,.1576,.4823,.2244,.2632,.1304,.5409,.2508,.8128,.3812,.1646,.0804,.3296,.1454,.4938,.2393,.2653,.1054,.5215,.2244,.7727,.3414,.165,.0668,.3292,.1339,.4889,.2123,.2562,.1188,.5211,.2244,.7777,.3433,.1456,.0534,.2909,.119,.4287,.184,.3321,.1324,.6481,.2642,.9526,.3967,.0788,.0398,.1514,.067,.2298,.092,.3833,.1588,.7591,.3049,1.1213,.4617,.1262,.0534,.2529,.0939,.3771,.1452,.2434,.0941,.4815,.1859,.7207,.2779,.1378,.054,.283,.1054,.4216,.1595,.2182,.0786,.4291,.1704,.6341,.2374,.1304,.052,.2702,.1054,.408,.1574,.2125,.0668,.4097,.1454,.6073,.2259,.1262,.0384,.2513,.0784,.3697,.1304,.2182,.0668,.4353,.1452,.6399,.2129,.0941,.038,.1923,.065,.2781,.1048,.3049,.092,.5743,.1846,.8511,.2764,.0668,.0264,.1399,.04,.2182,.067,.1972,.0648,.3886,.1188,.5743,.1838,.092,.027,.1786,.0534,.2645,.0804,.1576,.0386,.3164,.092,.4625,.1324,.092,.0264,.1836,.0514,.264,.0784,.1382,.038,.2698,.0784,.4022,.1054,.073,.0264,.1514,.04,.2244,.067,.132,.0386,.257,.0648,.375,.0918,.0598,.0136,.1192,.0386,.165,.0386,.1725,.04,.3375,.0804,.4699,.1054,.6663,.1339,1.3004,.2259,1.8999,.2907,.0334,.0136,.0677,.0136,.1003,.0136,.5879,.0656,1.1478,.1054,1.6688,.1054h.0074c-.0858-.1974-.1972-.421-.356-.6725"/>
      <path class="cls-2" d="M234.2829,15.1397c-6.9765-5.0966-16.7468-9.5457-23.1881-6.7986-4.3633,1.8609-7.1435,7.0097-8.2851,15.3271-1.01,7.434-.4159,11.7106,.0206,14.8395,.1192,.8449,.2302,1.6765,.2896,2.5086v.0128c1.3796-.4097,2.265-.5801,2.4886-.6071,2.1251-.3311,4.0992,1.1228,4.4355,3.2479,.3511,2.1381-1.1015,4.1329-3.2262,4.4891-.0404,.0134-4.3839,.7779-10.126,4.7653-.2517,.1725-.5099,.3028-.7855,.4082-.3111,.3313-.6023,.6611-.8915,.9904-.0536,.054-.0994,.1188-.1531,.1722-.2702,.3164-.5347,.6347-.7913,.9503-.0536,.0522-.0994,.119-.1514,.1712-1.0768,1.3336-2.0063,2.6536-2.7803,3.9218-.0594,.0918-.111,.1838-.1704,.2777-.146,.2494-.2838,.5002-.4155,.7383-.0804,.1318-.146,.2777-.2112,.3961-.1188,.2378-.2319,.4617-.3445,.6861-.073,.1458-.1386,.3049-.2034,.4501-.0941,.2108-.1861,.4218-.2781,.6193-.0784,.1859-.1452,.3697-.2108,.5421-.092,.2506-.1857,.5021-.2583,.7393-.073,.2645-.1576,.5159-.2244,.7665-.0322,.1306-.0656,.2758-.0998,.4218-.0441,.1974-.0838,.4076-.1246,.6071-.0264,.1458-.0396,.2777-.0594,.4103-.0326,.1972-.0512,.3946-.0648,.5941-.021,.1318-.021,.2508-.0272,.3812-.0074,.2123-.0074,.4231-.0074,.6341,.0074,.1054,.0074,.2108,.0136,.3049,.021,.3028,.0532,.6069,.1056,.8963,.0458,.2515,.1126,.5157,.1795,.7663,.019,.0522,.0462,.119,.0598,.1725,.0784,.2244,.1568,.4353,.2492,.6463,.0074,.0262,.0264,.0648,.0326,.0918,.2455,.5287,.5359,1.0308,.9043,1.5061,5.0906-3.2615,18.0814-7.0379,50.3006-.7529,2.376,.4617,4.8583,.9767,7.4534,1.5572,.038,0,.0726,.027,.111,.0406-.7319-1.3606-1.3264-2.7999-1.7493-4.3173-.4485-1.5708-.7261-3.2093-.7991-4.9107-.0846-1.8621,.0994-3.698,.4827-5.4663-4.6215-2.9973-8.5087-4.6871-8.6015-4.7269-1.8999-.8051-2.7782-3.0101-1.9675-4.9107,.807-1.9007,3.0047-2.7862,4.9054-1.9663,.3833,.1574,4.0142,1.7418,8.5689,4.5795,.6452-1.0153,1.385-1.9927,2.2163-2.9044,2.0009-2.1901,4.3897-3.8936,7.0053-5.0818-4.0006-7.8694-11.3876-19.3024-23.6267-28.187"/>
      <path class="cls-2" d="M229.696,76.2255c-19.9078-3.0371-29.481-1.36-33.817,.2913,.4678,.2244,.9505,.4346,1.4716,.6341,.1452,.052,9.109,3.4837,20.8006,4.0792,6.825,.3435,14.5808-.2777,22.0598-3.1289h.0074c-3.7956-.7665-7.2867-1.387-10.5224-1.8757"/>
      <path class="cls-2" d="M280.9467,58.68c-.9316-3.1689-2.8723-5.8747-5.4454-7.7754-2.0867-1.5459-4.5815-2.5348-7.276-2.8127-.7187-.0648-1.4382-.1054-2.1705-.0648-1.9007,.0784-3.7304,.513-5.4128,1.266-1.8359,.8185-3.5068,2.0063-4.9054,3.5392-.6341,.6861-1.1878,1.4256-1.6688,2.2037-1.4464,2.3238-2.2109,4.9912-2.2184,7.7638,0,.2372-.0136,.4753,0,.7259,.0594,1.4256,.3288,2.7978,.7719,4.0928,.4353,1.2932,1.0632,2.5214,1.8223,3.6293,1.439,2.0993,3.3987,3.8162,5.6905,4.9506,.316,.1595,.6457,.2913,.9757,.4373,1.9217,.7779,4.0324,1.1876,6.2441,1.0822,.0536,0,.0994-.0134,.1526-.0134,.4167-.013,.8321-.0534,1.248-.1048,.4753-.0677,.9444-.1597,1.406-.2651,.0656-.0128,.125-.0264,.1918-.0534,2.7918-.6995,5.3192-2.2035,7.3139-4.3686,.0396-.0534,.0858-.0939,.1242-.1452,.0994-.119,.1914-.2515,.2913-.3705,.3833-.448,.7455-.9233,1.0632-1.412,1.5562-2.3908,2.3896-5.15,2.4011-8.0396,.0074-.2393,.0136-.4901,.0074-.7261v-.0134c-.0594-1.2148-.2777-2.403-.6069-3.5258"/>
    </g>
  </g>
</svg>