<svg width="64px" height="64px" viewBox="0 0 1024 1024" class="icon" version="1.1" xmlns="http://www.w3.org/2000/svg" fill="#000000"><g id="SVGRepo_bgCarrier" stroke-width="0"></g><g id="SVGRepo_tracerCarrier" stroke-linecap="round" stroke-linejoin="round"></g><g id="SVGRepo_iconCarrier"><path d="M280.6 715c12.6 2.6 25.1-3.7 31.2-14.7h0.1c3.2-5.9 6.9-11.5 11-16.8l-0.1-0.1c3-3.7 5.3-8.2 6.3-13.3 3.4-16.2-6.6-32-22.3-35.3-12.3-2.5-24.4 3.3-30.7 13.8-4.9 6.4-9.3 13.2-13.4 20.3-2.1 3.1-3.6 6.7-4.4 10.7-3.4 16.4 6.6 32.1 22.3 35.4zM295.6 949.3c-9.2 0-18.3-4.2-24.2-12.2-24.8-33.7-39-82-39-132.6 0-14.1 1.1-28.1 3.2-41.6 2.6-16.4 17.9-27.5 34.3-25 16.4 2.6 27.5 17.9 25 34.3-1.6 10.5-2.5 21.4-2.5 32.3 0 38.1 10 73.4 27.3 97.1 9.8 13.4 6.9 32.1-6.4 41.9-5.3 3.9-11.5 5.8-17.7 5.8zM745.5 837c-12.6-2.6-25.1 3.7-31.2 14.7h-0.1c-3.2 5.9-6.9 11.5-11 16.8l0.1 0.1c-3 3.7-5.3 8.2-6.3 13.3-3.4 16.2 6.6 32 22.3 35.3 12.3 2.5 24.4-3.3 30.7-13.8 4.9-6.4 9.3-13.2 13.4-20.3 2.1-3.1 3.6-6.7 4.4-10.7 3.4-16.4-6.6-32.2-22.3-35.4zM730.5 602.7c9.2 0 18.3 4.2 24.2 12.2 24.8 33.7 39 82 39 132.6 0 14.1-1.1 28.1-3.2 41.6-2.6 16.4-17.9 27.5-34.3 25-16.4-2.6-27.5-17.9-25-34.3 1.6-10.5 2.5-21.4 2.5-32.3 0-38.1-10-73.4-27.3-97.1-9.8-13.4-6.9-32.1 6.4-41.9 5.3-3.9 11.5-5.8 17.7-5.8z" fill="#33CC99"></path><path d="M835.2 255.7c2.2-5.6 3.3-11.3 3.3-17.2 0-60.9-123.8-110.3-276.6-110.3s-276.6 49.4-276.6 110.3c0 5.8 1.1 11.6 3.3 17.2h546.6z" fill="#FFB89A"></path><path d="M910.2 678.5V383.8h0.5c0-4.9-0.2-9.7-0.5-14.5V355c-0.7-30.9-10.3-64.3-28-97.1-18.5-34.4-45.7-67.3-78.4-95.1C767.7 132.2 725.7 108 679 91c-51.7-18.9-108-28.4-167.3-28.4-59.3 0-115.5 9.6-167.2 28.5-46.7 17.1-88.6 41.2-124.7 71.9-32.7 27.8-59.8 60.7-78.4 95.1-18.3 34-28.1 68.7-28.1 100.6 0 2.3 0.1 4.7 0.2 7.1v4.3c-0.3 4.6-0.5 9.3-0.5 13.9v30h0.5v417.9c1 70.8 59.2 128.5 130.3 128.5 71.7 0 130.3-58.7 130.3-130.3V706.4c0-71.7-58.7-130.3-130.3-130.3-25.9 0-50 7.6-70.3 20.8v-225c3.1-38 21.2-73.7 51.7-101.6 33.7-30.8 79.6-48.5 125.9-48.5h326.4c91 0 165.8 66 172.6 149.5v223.6c-19.7-12-42.7-18.8-67.3-18.8-71.7 0-130.3 58.7-130.3 130.3v123.5c0 71.7 58.7 130.3 130.3 130.3 71.7 0 130.3-58.7 130.3-130.3V706.4c0.1-9.6-0.9-18.9-2.9-27.9z m-736.7 27.9c0-18.6 7.4-36.3 20.7-49.6 13.4-13.4 31-20.7 49.6-20.7s36.3 7.4 49.6 20.7c13.4 13.4 20.7 31 20.7 49.6v123.5c0 18.6-7.4 36.3-20.7 49.6-13.4 13.4-31 20.7-49.6 20.7s-36.3-7.4-49.6-20.7c-13.4-13.4-20.7-31-20.7-49.6V706.4z m177.6-544.6c-7.5 0-15 0.3-22.4 1 11.7-5.7 23.8-10.9 36.3-15.5 45.1-16.5 94.4-24.8 146.7-24.8 52.2 0 101.6 8.3 146.7 24.8 12.2 4.5 24 9.5 35.4 15-5.4-0.4-10.8-0.5-16.2-0.5H351.1z m481.4 717.7c-13.4 13.4-31 20.7-49.6 20.7s-36.3-7.4-49.6-20.7c-13.4-13.4-20.7-31-20.7-49.6V706.4c0-18.6 7.4-36.3 20.7-49.6 13.4-13.4 31-20.7 49.6-20.7s36.3 7.4 49.6 20.7c8.3 8.3 14.3 18.3 17.7 29.2v145.7h3c-0.5 18-7.8 34.9-20.7 47.8z" fill="#45484C"></path></g></svg>