<?xml version="1.0" standalone="no"?>
<!DOCTYPE svg PUBLIC "-//W3C//DTD SVG 20010904//EN"
 "http://www.w3.org/TR/2001/REC-SVG-20010904/DTD/svg10.dtd">
<svg version="1.0" xmlns="http://www.w3.org/2000/svg"
 width="784.000000pt" height="719.000000pt" viewBox="0 0 784.000000 719.000000"
 preserveAspectRatio="xMidYMid meet">
<metadata>
Created by potrace 1.16, written by Peter Selinger 2001-2019
</metadata>
<g transform="translate(0.000000,719.000000) scale(0.100000,-0.100000)"
fill="#000000" stroke="none">
<path d="M426 7044 c-67 -66 -89 -96 -99 -131 l-13 -46 -38 34 c-37 32 -38 34
-34 91 3 43 10 64 28 83 13 14 21 27 18 30 -3 3 -22 -13 -42 -35 -32 -36 -36
-46 -36 -94 0 -69 31 -120 77 -124 24 -2 32 -9 41 -35 10 -32 10 -32 11 -4 1
26 3 27 51 27 28 0 63 6 79 14 17 9 32 11 42 5 8 -5 41 -9 74 -9 60 0 94 13
123 48 17 23 16 142 -3 169 -28 40 -78 63 -138 63 l-56 0 -85 -86z m232 30
c29 -32 32 -42 32 -98 0 -58 -2 -63 -29 -79 -46 -27 -175 -19 -131 8 5 3 10
11 10 17 0 6 -7 5 -17 -3 -13 -11 -17 -11 -21 -1 -2 8 -15 3 -38 -18 -26 -23
-44 -30 -75 -30 -37 0 -40 2 -34 23 14 43 101 152 149 185 68 45 112 44 154
-4z"/>
<path d="M4855 7124 c-190 -39 -394 -138 -606 -295 l-81 -61 -42 39 c-96 92
-205 146 -329 164 -208 31 -413 -78 -574 -305 -34 -48 -63 -90 -65 -95 -2 -5
-100 -23 -218 -41 -404 -59 -575 -96 -806 -174 l-132 -44 -103 29 c-373 105
-734 139 -934 89 -59 -15 -108 -35 -145 -59 -47 -31 -60 -47 -92 -113 -91
-186 -123 -413 -88 -620 26 -153 77 -294 154 -425 l33 -55 -33 -62 c-82 -154
-120 -391 -111 -696 4 -107 9 -204 12 -216 6 -19 1 -22 -57 -33 -296 -57 -517
-152 -482 -209 18 -29 56 -42 124 -41 72 0 89 3 309 48 84 18 159 30 165 28 7
-3 30 -45 51 -93 22 -49 56 -118 77 -154 l37 -65 -67 -26 c-132 -51 -302 -174
-302 -219 0 -50 117 -80 168 -44 15 11 90 46 166 78 l139 59 20 -29 c12 -16
51 -61 87 -99 36 -39 80 -86 98 -106 l34 -37 -89 -63 c-48 -34 -134 -108 -190
-163 -89 -86 -103 -104 -103 -132 0 -61 66 -81 145 -45 22 10 79 54 126 97 97
89 238 194 262 194 9 0 19 -5 22 -10 20 -32 399 -200 451 -200 33 0 0 -16 -91
-45 -104 -33 -279 -120 -380 -188 -62 -42 -76 -47 -125 -47 -113 0 -225 -43
-298 -113 -81 -78 -106 -171 -77 -281 14 -54 14 -63 -1 -109 -24 -71 -15 -222
16 -297 30 -71 83 -145 140 -197 51 -46 149 -99 200 -108 l35 -6 1 -142 c1
-155 11 -230 51 -352 72 -223 244 -420 460 -525 135 -66 183 -75 378 -74 200
0 284 18 430 88 138 67 235 95 460 132 161 27 625 27 775 0 122 -21 239 -56
311 -92 179 -90 437 -131 639 -100 218 32 358 104 533 275 101 98 145 173 202
344 43 130 57 214 57 357 1 260 -104 494 -311 693 l-87 84 105 32 c311 95 596
241 749 385 102 94 178 232 195 352 43 295 -156 547 -463 589 -39 5 -62 15
-77 32 l-23 24 68 104 c52 81 72 104 90 105 21 0 74 -10 309 -56 140 -27 259
-14 277 31 11 31 -25 74 -79 93 -16 6 -65 24 -109 41 -43 16 -132 42 -197 57
-65 15 -119 31 -119 36 0 5 13 46 29 91 15 45 36 116 46 158 l18 77 101 7 c56
4 122 9 147 10 25 1 78 8 118 15 76 13 97 29 103 80 4 37 -49 50 -263 63
l-186 11 -6 150 c-4 83 -9 162 -13 176 -5 25 -5 26 98 43 169 28 276 39 321
35 52 -6 132 31 149 67 10 21 8 29 -11 49 -23 24 -90 49 -112 42 -8 -3 -68
-10 -134 -16 -66 -6 -170 -20 -232 -30 -62 -11 -114 -20 -117 -20 -2 0 -17 37
-32 83 -32 97 -105 248 -168 345 l-46 70 41 108 c67 178 91 283 92 409 2 138
-17 198 -82 268 -59 64 -111 93 -191 108 l-65 13 -33 110 c-46 158 -135 337
-205 411 -98 107 -212 156 -352 154 -38 -1 -79 -3 -90 -5z m208 -231 c64 -41
134 -169 207 -379 l18 -51 -117 -33 c-64 -18 -165 -50 -225 -71 l-108 -38 -47
29 c-84 52 -178 81 -285 88 l-99 7 -16 47 c-9 26 -31 63 -50 82 -19 20 -33 37
-30 39 26 21 306 166 437 227 209 98 237 103 315 53z m-1236 -98 c99 -34 202
-101 285 -187 74 -77 155 -201 135 -206 -6 -2 -33 -13 -59 -24 l-46 -21 -44
21 c-120 56 -288 25 -397 -73 -53 -48 -75 -120 -69 -228 4 -67 9 -90 31 -124
43 -68 122 -118 217 -138 49 -10 57 -15 77 -50 13 -22 23 -42 23 -45 0 -8
-151 -66 -235 -91 -86 -25 -250 -31 -310 -10 -95 33 -175 119 -212 228 -32 94
0 368 64 538 85 228 198 366 338 413 80 27 112 27 202 -3z m-742 -487 c-30
-138 -37 -220 -32 -352 8 -204 49 -314 149 -397 96 -80 178 -104 348 -103 146
1 278 29 443 94 l100 39 34 -29 c105 -93 321 -134 501 -96 l63 13 92 -92 c99
-99 182 -152 281 -180 147 -43 374 9 515 117 13 10 28 18 32 18 20 0 144 -295
137 -326 -2 -9 -41 -28 -93 -45 -49 -17 -112 -41 -140 -55 -89 -45 -103 -70
-63 -113 19 -21 28 -23 93 -19 43 3 104 16 153 34 45 15 83 26 86 23 8 -8 26
-171 26 -240 0 -69 -6 -79 -49 -79 -33 0 -118 -30 -145 -51 l-27 -21 20 -32
c22 -34 70 -54 134 -55 20 -1 37 -6 37 -12 0 -19 -40 -150 -67 -221 l-26 -68
-66 -2 c-36 -1 -88 -2 -115 -3 -55 -2 -76 -20 -76 -67 0 -51 107 -143 142
-122 13 8 -14 -33 -79 -118 -37 -48 -49 -57 -85 -63 -101 -17 -180 -70 -254
-168 -43 -57 -53 -65 -138 -100 -386 -162 -839 -298 -1221 -366 -286 -52 -508
-72 -790 -72 -398 0 -714 45 -1050 150 -135 43 -315 117 -315 130 0 4 19 16
43 28 75 37 107 70 107 112 0 45 -25 72 -66 73 -16 0 -79 -24 -142 -56 -62
-31 -118 -53 -125 -50 -23 14 -172 143 -211 183 l-39 40 24 9 c13 5 51 18 84
27 60 18 115 61 115 90 0 8 -12 22 -26 31 -24 16 -33 16 -157 -3 l-132 -21
-17 22 c-21 25 -93 170 -113 225 l-14 40 32 5 c213 31 251 43 285 94 13 20 12
24 -15 51 -25 24 -41 30 -98 36 -38 4 -110 5 -161 2 l-92 -6 -8 77 c-11 115
-8 335 5 437 22 165 50 263 117 400 92 190 113 271 84 326 -13 24 -64 25 -121
3 l-41 -17 -27 29 c-15 16 -38 54 -51 84 -32 77 -40 292 -16 406 19 86 50 176
75 212 43 63 160 87 375 79 190 -7 454 -61 642 -132 l65 -24 67 25 c106 40
305 89 658 163 181 38 332 69 337 70 4 1 5 -9 2 -21z m2450 -18 c83 -13 106
-31 137 -109 18 -46 22 -76 22 -166 -1 -182 -37 -308 -123 -429 -71 -99 -137
-159 -226 -202 -115 -56 -229 -44 -345 37 -61 43 -140 135 -133 155 3 9 37 10
118 7 177 -7 276 34 340 143 25 43 27 53 22 112 -15 151 -126 262 -264 262
l-52 0 -21 46 c-11 26 -20 48 -20 50 0 10 123 57 185 71 135 29 260 37 360 23z
m-893 -62 c79 -37 140 -96 173 -169 23 -53 27 -71 23 -138 -6 -128 -71 -221
-196 -279 -50 -24 -70 -27 -157 -27 -87 0 -107 3 -157 27 -125 58 -190 151
-196 280 -4 67 -1 84 23 135 40 89 93 137 194 180 80 33 211 30 293 -9z m-656
-19 c7 -6 -1 -32 -28 -85 -21 -42 -38 -89 -38 -105 0 -16 -5 -29 -12 -29 -24
0 -78 46 -93 81 -16 34 -16 38 3 76 11 22 27 45 36 52 34 29 103 34 132 10z
m1144 -326 c31 -39 24 -82 -19 -110 -34 -23 -85 -31 -95 -15 -4 7 14 96 29
140 8 23 62 14 85 -15z m408 -2421 c19 -8 43 -27 54 -43 19 -25 24 -27 72 -22
102 11 236 -37 302 -107 61 -64 77 -111 71 -209 -4 -73 -10 -94 -47 -168 -51
-103 -131 -189 -245 -262 l-80 -51 -63 63 c-125 122 -285 345 -367 507 -34 68
-36 75 -20 85 37 22 65 47 61 54 -3 4 6 30 18 58 24 51 77 103 118 114 30 9
84 1 126 -19z m-349 -631 c127 -179 231 -328 231 -332 0 -4 -88 -36 -195 -71
l-194 -63 -105 155 c-58 85 -162 234 -230 330 l-124 175 32 14 c78 35 323 120
338 118 9 -1 117 -143 247 -326z m-801 94 c17 -24 101 -148 187 -275 l157
-231 -94 7 c-301 21 -586 -86 -756 -285 -112 -130 -162 -228 -232 -454 -34
-113 -28 -300 17 -457 22 -77 94 -237 137 -305 21 -31 35 -59 32 -62 -3 -3
-51 0 -108 7 -147 17 -461 15 -578 -4 -142 -24 -136 -31 -75 90 94 184 135
357 135 568 0 155 -11 227 -47 316 -56 138 -128 247 -228 346 -108 106 -227
174 -375 215 -72 20 -108 24 -237 24 l-152 0 32 58 c33 60 131 200 182 259
l30 35 75 -9 c41 -4 94 -6 117 -3 46 7 45 7 59 -70 18 -100 103 -227 207 -309
85 -66 186 -110 314 -137 91 -18 127 -21 226 -15 151 8 300 38 385 78 96 45
216 166 265 268 43 89 65 168 74 268 l6 72 41 11 c35 10 150 36 167 38 3 1 19
-19 37 -44z m-463 -183 c-49 -168 -176 -283 -375 -338 -47 -14 -98 -18 -185
-18 -298 2 -486 126 -503 330 l-4 61 229 6 c245 7 418 23 682 66 l166 26 3
-38 c2 -21 -4 -63 -13 -95z m-1907 -158 l-130 -196 -40 39 c-22 21 -64 74 -93
118 l-53 80 56 32 c104 60 281 121 353 122 l36 1 -129 -196z m-394 -237 l101
-117 -90 -93 c-98 -100 -164 -192 -234 -330 -42 -83 -46 -88 -70 -82 -83 20
-169 83 -204 149 -30 59 -30 177 1 267 21 61 22 68 7 108 -17 50 -19 108 -5
146 20 52 132 80 224 54 33 -9 41 -8 60 10 11 11 32 24 46 29 32 12 36 9 164
-141z m3134 -133 c291 -60 486 -260 596 -612 22 -69 26 -102 26 -197 0 -132
-10 -185 -54 -299 -121 -308 -412 -475 -764 -439 -303 31 -525 203 -643 498
-40 101 -69 231 -69 309 1 119 55 307 126 434 94 168 272 285 474 312 97 13
229 10 308 -6z m-2214 -28 c294 -115 445 -352 445 -701 1 -308 -174 -616 -424
-749 -27 -14 -54 -26 -59 -26 -5 0 -17 -6 -25 -14 -18 -16 -122 -50 -199 -65
-239 -49 -493 57 -635 264 -47 69 -91 156 -118 234 -22 62 -25 160 -9 291 47
397 219 652 508 757 101 37 134 41 297 39 136 -3 157 -6 219 -30z"/>
<path d="M4635 4653 c-28 -16 -63 -47 -80 -71 -26 -38 -30 -52 -30 -110 0
-138 64 -239 165 -261 81 -18 178 23 220 92 40 65 18 224 -42 300 -37 46 -70
64 -134 72 -42 5 -57 1 -99 -22z"/>
<path d="M2006 4310 c-16 -5 -44 -24 -63 -42 -110 -107 -62 -380 74 -414 43
-11 156 3 205 25 56 26 68 53 68 156 0 121 -47 222 -120 260 -36 19 -127 27
-164 15z"/>
<path d="M3381 4071 c-109 -38 -160 -102 -170 -211 -8 -87 6 -117 71 -148 103
-50 243 -54 378 -9 67 22 78 29 107 71 55 80 65 143 33 205 -40 80 -117 111
-269 111 -67 -1 -112 -6 -150 -19z m239 -123 c73 -25 60 -90 -26 -133 -48 -24
-62 -27 -122 -23 -113 9 -141 33 -108 96 31 60 84 84 168 76 32 -3 71 -10 88
-16z"/>
</g>
</svg>