<svg height="64px" width="64px" version="1.1" id="Layer_1" xmlns="http://www.w3.org/2000/svg" xmlns:xlink="http://www.w3.org/1999/xlink" viewBox="0 0 511.984 511.984" xml:space="preserve" fill="#000000"><g id="SVGRepo_bgCarrier" stroke-width="0"></g><g id="SVGRepo_tracerCarrier" stroke-linecap="round" stroke-linejoin="round"></g><g id="SVGRepo_iconCarrier"> <path style="fill:#c4defd;" d="M351.989,10.66c-46.123,0-87.677,19.523-116.879,50.749c-15.64-18.023-38.718-29.414-64.451-29.414 c-47.132,0-85.333,38.202-85.333,85.333c0,0.711,0.008,1.422,0.031,2.125C36.655,129.328,0,172.373,0,223.989 c0,58.904,47.749,106.652,106.661,106.652h245.328c88.356,0,159.995-71.622,159.995-159.987 C511.984,82.29,440.346,10.66,351.989,10.66z"></path> <path style="fill:#949DA8;" d="M453.954,47.362c22.906,27.687,36.688,63.209,36.688,101.966 c0,88.356-71.622,160.002-159.995,160.002H85.326c-24.016,0-46.171-7.952-63.998-21.343c19.46,25.905,50.436,42.654,85.333,42.654 h245.328c88.356,0,159.995-71.622,159.995-159.987C511.984,121.047,489.391,76.705,453.954,47.362z"></path> <path style="fill:#F6BB42;" d="M213.314,501.324c-1.594,0-3.219-0.375-4.742-1.125c-5.273-2.625-7.422-9.031-4.797-14.313 l24.327-48.903h-46.999c-3.694,0-7.132-1.922-9.077-5.063c-1.938-3.156-2.109-7.078-0.453-10.391l32.108-63.998 c2.641-5.266,9.047-7.391,14.313-4.75c5.265,2.641,7.397,9.047,4.757,14.327l-24.358,48.53h46.928c3.695,0,7.125,1.922,9.07,5.063 c1.945,3.125,2.125,7.063,0.484,10.375l-31.999,64.31C221.009,499.137,217.236,501.324,213.314,501.324z"></path> <g> <path style="fill:#5D9CEC;" d="M85.318,501.324c-1.602,0-3.227-0.375-4.766-1.141c-5.266-2.641-7.398-9.047-4.766-14.297 l63.998-127.995c2.633-5.281,9.039-7.406,14.313-4.781c5.266,2.625,7.405,9.03,4.766,14.312L94.865,495.418 C92.998,499.152,89.232,501.324,85.318,501.324z"></path> <path style="fill:#5D9CEC;" d="M277.305,501.324c-1.594,0-3.219-0.375-4.75-1.141c-5.273-2.641-7.406-9.047-4.773-14.297 l63.99-127.995c2.641-5.281,9.046-7.406,14.312-4.781c5.281,2.625,7.406,9.03,4.781,14.312l-63.998,127.996 C284.991,499.152,281.225,501.324,277.305,501.324z"></path> </g> </g></svg>